Coordinates
version=1
nRows=10
nColumns=63
inDegrees=yes

Units are S.I. units (second, meters, Newtons, ...)
If the header above contains a line with 'inDegrees', this indicates whether rotational values are in degrees (yes) or radians (no).

endheader
time	pelvis_tilt	pelvis_list	pelvis_rotation	pelvis_tx	pelvis_ty	pelvis_tz	hip_flexion_r	hip_adduction_r	hip_rotation_r	knee_angle_r	knee_angle_r_beta	ankle_angle_r	subtalar_angle_r	mtp_angle_r	hip_flexion_l	hip_adduction_l	hip_rotation_l	knee_angle_l	knee_angle_l_beta	ankle_angle_l	subtalar_angle_l	mtp_angle_l	L5_S1_Flex_Ext	L5_S1_Lat_Bending	L5_S1_axial_rotation	L4_L5_Flex_Ext	L4_L5_Lat_Bending	L4_L5_axial_rotation	L3_L4_Flex_Ext	L3_L4_Lat_Bending	L3_L4_axial_rotation	L2_L3_Flex_Ext	L2_L3_Lat_Bending	L2_L3_axial_rotation	L1_L2_Flex_Ext	L1_L2_Lat_Bending	L1_L2_axial_rotation	L1_T12_Flex_Ext	L1_T12_Lat_Bending	L1_T12_axial_rotation	Abs_r3	Abs_r2	Abs_r1	Abs_t1	Abs_t2	neck_flexion	neck_bending	neck_rotation	arm_flex_r	arm_add_r	arm_rot_r	elbow_flex_r	pro_sup_r	wrist_flex_r	wrist_dev_r	arm_flex_l	arm_add_l	arm_rot_l	elbow_flex_l	pro_sup_l	wrist_flex_l	wrist_dev_l
      4.63265306	     -2.29962690	     -3.11254737	     91.38186267	      0.21411242	      0.75106728	      0.77557542	      2.64370776	     -2.97320270	    -16.64276118	      8.45078708	      0.14749406	     32.45561501	     17.04488662	      0.00000000	      6.16123847	      0.98746247	     -5.67362591	     12.80580453	      0.22350345	     29.16851875	     12.46997631	      0.00000000	      0.05604046	     -0.31832976	     -0.13020317	      0.10407273	     -0.42337858	     -0.13834087	      0.09206887	     -0.77398698	     -0.13834087	      0.06404864	     -0.77398698	     -0.11392778	      0.05203917	     -0.64913805	     -0.10579008	      0.03202152	     -0.49309280	     -0.09765238	      0.40029138	     -3.60100992	     -0.72415099	      0.00000000	      0.00000000	     27.15030993	      2.67415320	      2.56508206	     14.56973373	    -14.34686537	    108.70807915	     13.16082603	      5.65807655	     -8.31421350	      5.43559873	      9.60195060	    -14.71665354	     21.89557994	      1.23747528	     78.14798685	    -11.27704869	     10.63168195
      4.65306122	     -2.32387208	     -3.28304072	     91.37345304	      0.21392063	      0.75152456	      0.77454112	      2.73162135	     -2.98102617	    -16.65489942	      8.29819026	      0.14483074	     32.43658799	     17.05823651	      0.00000000	      6.14832923	      1.07001656	     -5.78102501	     12.52701520	      0.21863766	     28.99246977	     12.59504123	      0.00000000	      0.07636043	     -0.32175347	      0.03895061	      0.14180895	     -0.42793212	      0.04138502	      0.12545255	     -0.78231139	      0.04138502	      0.08727233	     -0.78231139	      0.03408178	      0.07090829	     -0.65611968	      0.03164737	      0.04363235	     -0.49839613	      0.02921296	      0.54543489	     -3.63973961	      0.21663160	      0.00000000	      0.00000000	     27.27348430	      2.47713553	      2.15094129	     13.40630258	    -14.90925610	    104.91035444	     13.44316848	      8.05041443	     -8.22391087	      5.46692415	      9.94488700	    -14.38011803	     20.97024414	      1.22978013	     79.12303125	    -11.85379551	     10.12707586
      4.67346939	     -2.39005391	     -3.34863546	     91.16758803	      0.21404854	      0.75214304	      0.77318242	      2.73426526	     -3.02544691	    -16.46135760	      8.19757457	      0.14307467	     32.38343115	     17.07992251	      0.00000000	      5.91670261	      1.24548482	     -5.50983640	     12.11541800	      0.21145393	     28.61793300	     11.94122711	      0.00000000	      0.09121503	     -0.33467618	      0.23738422	      0.16939544	     -0.44511931	      0.25222073	      0.14985718	     -0.81373166	      0.25222073	      0.10424966	     -0.81373166	      0.20771119	      0.08470228	     -0.68247166	      0.19287468	      0.05212027	     -0.51841340	      0.17803816	      0.65153985	     -3.78592384	      1.32025980	      0.00000000	      0.00000000	     27.33676414	      2.17788362	      1.30957442	     12.70647506	    -15.35869905	    103.51839210	     13.88848925	      9.24523857	     -8.03440928	      5.94065136	     10.20955564	    -14.12304867	     21.81654601	      1.14601857	     79.35068223	    -12.09498112	      9.52147052
      4.69387755	     -2.45529031	     -3.27227430	     90.77387548	      0.21451543	      0.75281127	      0.77108501	      2.50284831	     -3.04276908	    -16.08342843	      8.02253397	      0.14001963	     32.28294292	     17.03795008	      0.00000000	      5.43198483	      1.33954266	     -5.90914450	     11.66834781	      0.20365109	     28.32694441	     11.99435492	      0.00000000	      0.10217192	     -0.34801026	      0.41448585	      0.18974346	     -0.46285364	      0.44039122	      0.16785824	     -0.84615214	      0.44039122	      0.11677228	     -0.84615214	      0.36267512	      0.09487684	     -0.70966252	      0.33676975	      0.05838103	     -0.53906789	      0.31086439	      0.72980378	     -3.93676164	      2.30524595	      0.00000000	      0.00000000	     27.32329204	      2.00703317	      0.73135870	     12.62644108	    -15.67415849	    104.83348598	     14.40791509	      8.97599031	     -7.48503371	      6.73715928	     10.24870102	    -13.94669189	     21.44663566	      1.00407383	     80.56840010	    -12.19896599	      8.67579814
      4.71428571	     -2.52113171	     -3.19048201	     90.71283845	      0.21451647	      0.75333933	      0.76851119	      2.09528423	     -3.06486025	    -16.13879769	      7.70060878	      0.13440098	     32.10604078	     17.00929351	      0.00000000	      4.98481084	      1.46766908	     -5.95442000	     11.34528508	      0.19801258	     28.03157645	     11.97533538	      0.00000000	      0.12036518	     -0.36214922	      0.48160748	      0.22353017	     -0.48165847	      0.51170795	      0.19774795	     -0.88052962	      0.51170795	      0.13756536	     -0.88052962	      0.42140655	      0.11177110	     -0.73849470	      0.39130608	      0.06877666	     -0.56096915	      0.36120561	      0.85975642	     -4.09670444	      2.67855633	      0.00000000	      0.00000000	     27.21093218	      2.23570685	      0.40923918	     12.67046322	    -15.92498943	    105.12388092	     15.01187425	      8.87081709	     -7.12561508	      7.35990959	     10.16498199	    -13.83302604	     21.57023138	      0.89246316	     81.09763912	    -12.25496524	      8.27652071
      4.73469388	     -2.48550472	     -2.89170046	     90.48550023	      0.21463201	      0.75407323	      0.76565589	      1.46642226	     -2.98253494	    -16.02528461	      7.42414497	      0.12957577	     31.90692380	     16.96853773	      0.00000000	      4.20170519	      1.51558193	     -6.13707355	     10.87123031	      0.18973876	     27.67312209	     11.72106861	      0.00000000	      0.10689154	     -0.35642192	      0.49622386	      0.19850828	     -0.47404116	      0.52723785	      0.17561211	     -0.86660426	      0.52723785	      0.12216634	     -0.86660426	      0.43419588	      0.09925948	     -0.72681559	      0.40318189	      0.06107783	     -0.55209756	      0.37216789	      0.76351557	     -4.03191608	      2.75984824	      0.00000000	      0.00000000	     26.95803706	      2.27924129	      0.08395412	     13.01477017	    -15.90721516	    105.58289842	     15.18326883	      8.88671919	     -6.83666764	      8.09527447	     10.02913176	    -13.70643670	     21.71771179	      0.82457541	     81.72171449	    -12.20713610	      8.19545261
      4.75510204	     -2.37912343	     -2.43064399	     90.12269263	      0.21452614	      0.75491114	      0.76244590	      0.65357053	     -2.83248753	    -15.24280905	      7.10538179	      0.12401231	     31.63752517	     16.41035593	      0.00000000	      2.98460884	      1.77249289	     -3.73132821	      9.87444801	      0.17234163	     26.86247307	      8.12267058	      0.00000000	      0.07537996	     -0.32777759	      0.49752156	      0.13998813	     -0.43594419	      0.52861666	      0.12384174	     -0.79695843	      0.52861666	      0.08615176	     -0.79695843	      0.43533137	      0.06999783	     -0.66840406	      0.40423627	      0.04307211	     -0.50772748	      0.37314117	      0.53843152	     -3.70788564	      2.76706569	      0.00000000	      0.00000000	     26.61016264	      2.20780733	      0.30016368	     14.40812239	    -15.74347673	    113.05748989	     15.37315793	      6.47812135	     -6.00649306	      8.49276952	     10.01674033	    -13.40866877	     19.80620441	      0.82050363	     84.03491966	    -12.15431119	      8.64895853
      4.77551020	     -2.15230562	     -2.03134725	     89.61393370	      0.21482433	      0.75571041	      0.75963048	      0.10777753	     -2.61475410	    -14.82626727	      7.11920669	      0.12425360	     31.52018826	     16.38763813	      0.00000000	      2.01083775	      1.66009085	     -3.93572147	      9.24604064	      0.16137385	     26.56956073	      7.65511510	      0.00000000	      0.04908474	     -0.28224395	      0.51735285	      0.09115527	     -0.37538445	      0.54968740	      0.08064132	     -0.68624793	      0.54968740	      0.05609895	     -0.68624793	      0.45268374	      0.04558009	     -0.57555186	      0.42034919	      0.02804702	     -0.43719587	      0.38801464	      0.35060738	     -3.19279997	      2.87736133	      0.00000000	      0.00000000	     26.06602295	      2.12527845	      0.58745505	     15.26352543	    -15.37977605	    115.98550613	     14.86152710	      8.68177385	     -5.23411068	      8.92301132	     10.07765213	    -13.01554317	     19.90714542	      0.85905389	     83.52710150	    -12.11571497	      9.31783965
      4.79591837	     -1.79932564	     -1.67895036	     89.30764632	      0.21488632	      0.75656579	      0.75676790	     -0.35420405	     -2.26751171	    -14.41510833	      7.25907291	      0.12669472	     31.32009603	     16.02818599	      0.00000000	      1.02984157	      1.55442491	     -2.49765329	      8.44242806	      0.14734817	     26.01999905	      5.17820700	      0.00000000	      0.02647803	     -0.21901289	      0.50283596	      0.04917236	     -0.29128715	      0.53426320	      0.04350076	     -0.53250795	      0.53426320	      0.03026174	     -0.53250795	      0.43998146	      0.02458750	     -0.44661109	      0.40855421	      0.01512955	     -0.33925097	      0.37712697	      0.18912995	     -2.47751766	      2.79662274	      0.00000000	      0.00000000	     25.53379226	      2.00897175	      1.09743505	     16.20814045	    -14.76337196	    121.06255856	     13.87458681	     10.19837863	     -4.40603781	      8.30587478	     10.13772172	    -12.46977277	     19.64225750	      0.93161891	     81.74712721	    -12.37947092	      9.81549563
      4.81632653	     -1.50517131	     -1.48344779	     89.06857590	      0.21512155	      0.75730911	      0.75414722	     -0.53525075	     -2.00493170	    -14.27651273	      7.61897604	      0.13297622	     31.12747442	     15.94128573	      0.00000000	      0.42524407	      1.35778336	     -2.71459683	      8.00325183	      0.13968310	     25.95920036	      4.91608411	      0.00000000	      0.01485846	     -0.16934610	      0.55402176	      0.02759365	     -0.22523032	      0.58864812	      0.02441097	     -0.41174811	      0.58864812	      0.01698174	     -0.41174811	      0.48476904	      0.01379757	     -0.34533057	      0.45014268	      0.00849013	     -0.26231711	      0.41551632	      0.10613253	     -1.91567699	      3.08130282	      0.00000000	      0.00000000	     25.22279555	      1.78113575	      1.13246846	     16.36431741	    -14.26296721	    121.47117178	     12.81276449	     10.69012710	     -4.65539751	      7.76048689	     10.45292609	    -11.95651121	     19.44347215	      1.06152185	     81.30400880	    -12.48120039	     10.48577972
